<svg width="120" height="120" viewBox="0 0 120 120" fill="none" xmlns="http://www.w3.org/2000/svg">
<path d="M67.5184 7.84244L68.1785 8.36324L68.9672 8.07191L77.9506 4.75374L83.268 12.7185L83.7348 13.4178L84.575 13.3845L94.1441 13.0047L96.7399 22.2228L96.9678 23.0322L97.7772 23.2601L106.995 25.8559L106.616 35.425L106.582 36.2652L107.281 36.732L115.246 42.0494L111.928 51.0328L111.637 51.8215L112.158 52.4816L118.089 60L112.158 67.5184L111.637 68.1785L111.928 68.9672L115.246 77.9506L107.281 83.268L106.582 83.7348L106.616 84.575L106.995 94.1441L97.7772 96.7399L96.9678 96.9678L96.7399 97.7772L94.1441 106.995L84.575 106.616L83.7348 106.582L83.268 107.281L77.9506 115.246L68.9672 111.928L68.1785 111.637L67.5184 112.158L60 118.089L52.4816 112.158L51.8215 111.637L51.0328 111.928L42.0494 115.246L36.732 107.281L36.2652 106.582L35.425 106.616L25.8559 106.995L23.2601 97.7772L23.0322 96.9678L22.2228 96.7399L13.0047 94.1441L13.3845 84.575L13.4178 83.7348L12.7185 83.268L4.75374 77.9506L8.07191 68.9672L8.36324 68.1785L7.84244 67.5184L1.91065 60L7.84244 52.4816L8.36324 51.8215L8.07191 51.0328L4.75374 42.0494L12.7185 36.732L13.4178 36.2652L13.3845 35.425L13.0047 25.8559L22.2228 23.2601L23.0322 23.0322L23.2601 22.2228L25.8559 13.0047L35.425 13.3845L36.2652 13.4178L36.732 12.7185L42.0494 4.75374L51.0328 8.07191L51.8215 8.36324L52.4816 7.84244L60 1.91065L67.5184 7.84244Z" fill="#A3FF3A" stroke="black" stroke-width="3"/>
</svg>
